<svg t="1712588638016" class="icon" viewBox="0 0 1024 1024" version="1.1" xmlns="http://www.w3.org/2000/svg" p-id="4980"
    width="16" height="16">
    <path
        d="M848 128H608c-17.67 0-32 14.33-32 32s14.33 32 32 32h178.75L553.38 425.38c-12.5 12.5-12.5 32.75 0 45.25 6.25 6.25 14.44 9.38 22.62 9.38s16.38-3.12 22.62-9.38L832 237.25V416c0 17.67 14.33 32 32 32s32-14.33 32-32V176c0-26.47-21.53-48-48-48zM425.38 553.38L192 786.75V608c0-17.67-14.33-32-32-32s-32 14.33-32 32v240c0 26.47 21.53 48 48 48h240c17.67 0 32-14.33 32-32s-14.33-32-32-32H237.25l233.38-233.38c12.5-12.5 12.5-32.75 0-45.25s-32.75-12.49-45.25 0.01z"
        fill="context-fill" p-id="4981"></path>
</svg>