<?xml version="1.0" encoding="UTF-8"?>
<svg xmlns="http://www.w3.org/2000/svg" viewBox="0 0 256 256" width="16" height="16">
  <defs>
    <style>
      .cls-1 {
        stroke-width: 0px;
      }
    </style>
  </defs>
  <g>
    <path class="cls-1"
      d="m137.71,0c10.97,0,19.97,8.36,20.99,19.04l.1,2.04v76.13h73.54c12.32,0,22.47,9.46,23.55,21.53l.1,2.14v111.45c0,12.35-9.46,22.5-21.51,23.58l-2.14.09h-111.46c-12.35,0-22.48-9.46-23.58-21.51l-.09-2.16v-73.54H21.1c-10.86,0-19.94-8.24-21.01-19.04l-.09-2.04V21.08C0,10.12,8.36,1.15,19.04.1l2.05-.1h116.61Zm94.62,110.87h-73.53v26.84c-.02,10.97-8.38,19.95-19.07,20.98l-2.02.1h-26.82v73.54c0,5.01,3.72,9.18,8.52,9.91l1.47.1h111.46c5,0,9.16-3.72,9.88-8.54l.12-1.47v-111.43c0-5.52-4.48-10-10-10.03h-.01ZM29.37,172.31l.79-.03c3.47,0,6.39,2.59,6.8,6.04.06.54,1.13,8.63,6.22,17.26,4.76,8.08,12.94,16.63,27.23,20.31l3.17.72h.03c2.77.67,4.76,2.89,5.22,5.5l.1,1.16-.18,1.55c-.61,2.69-2.79,4.75-5.51,5.21l-1.15.09-1.1-.09h-.03c-21.13-4.09-33.12-16.57-39.68-27.99-3.94-6.77-6.62-14.2-7.92-21.93v-.19s-.01-.02-.01-.02l-.04-.79c0-2.99,1.93-5.63,4.78-6.53l1.26-.27.79-.03-.77.03Zm151.25-31.39c2.46.01,4.66,1.29,5.88,3.33l.52,1.06,24.16,62.99.45,2.46c0,2.4-1.25,4.62-3.3,5.86l-1.1.54-2.42.45c-2.39,0-4.61-1.23-5.86-3.27l-.53-1.12-5.18-13.58h-25.69l-5.36,13.64c-.88,2.23-2.87,3.84-5.24,4.24l-1.15.09-2.5-.48c-2.23-.87-3.83-2.85-4.24-5.21l-.09-1.16.48-2.51,24.82-62.98c.85-2.22,2.82-3.83,5.16-4.24l1.19-.1h.04-.03Zm-.07,25.69l-7.63,19.36h15.03l-7.39-19.34h0ZM137.69,13.69H21.11c-3.58.02-6.65,2.58-7.31,6.1l-.12,1.31v116.64c.01,3.58,2.57,6.64,6.08,7.29l1.34.15h116.61c3.58-.03,6.63-2.58,7.29-6.1l.12-1.34V21.1c0-4.09-3.32-7.41-7.41-7.42l-.03.02Zm-58.87,21.66c3.78,0,6.83,3.05,6.83,6.83v7.93h22.27c5.73,0,10.38,4.65,10.4,10.38v21.53c0,5.74-4.66,10.39-10.4,10.4h-22.29v25.56c-.17,3.65-3.18,6.53-6.84,6.53s-6.67-2.87-6.84-6.53v-25.54h-22.29c-5.74-.02-10.38-4.68-10.38-10.41v-21.5c.02-5.73,4.66-10.38,10.4-10.39h22.27v-7.93c0-3.78,3.06-6.84,6.84-6.84v-.02Zm25.83,28.42h-19.01v15.01h19v-15.03l.02.02Zm-32.69,0h-19.01v15.01h19v-15.03l.02.02Zm114.11-42.55l.51.02c8.39.65,20.38,3.97,30.57,11.71,9.49,7.22,17.3,18.39,18.69,34.61l.19,3.54c0,3.42-2.32,6.22-5.45,6.87l-1.2.15h-.19c-3.71,0-6.73-2.96-6.81-6.67-.49-16.71-9.19-25.62-18.12-30.65-5.73-3.13-12.01-5.14-18.49-5.92l-.27-.03-1.29-.24c-2.49-.7-4.37-2.74-4.87-5.28l-.12-1.29.03-.55c.34-3.53,3.3-6.23,6.84-6.25l-.02-.02Z"
      fill="#4286de" />
  </g>
</svg>